<?xml version="1.0" encoding="UTF-8"?>
<svg id="Camada_2" data-name="Camada 2" xmlns="http://www.w3.org/2000/svg" viewBox="0 0 188.55 188.42">
  <defs>
    <style>
      .cls-1 {
        opacity: .2;
      }

      .cls-2 {
        fill: #1a1a1a;
      }
    </style>
  </defs>
  <g id="Camada_1-2" data-name="Camada 1">
    <g class="cls-1">
      <path class="cls-2" d="M108.09,25.08c3.19,4.47,5.76,9.41,7.62,14.69,2.31.31,4.59.72,6.82,1.26.37.09.75.18,1.11.27.09.03.18.05.27.08.47.12.95.25,1.42.39,0,0,.02,0,.02,0,.46.12.91.26,1.36.4.39.12.78.24,1.17.37.4.13.8.27,1.2.41.37.12.74.26,1.11.4.37.13.73.27,1.1.42,2.15.83,4.25,1.78,6.29,2.83.49.25.97.5,1.45.77.81.44,1.61.9,2.4,1.37.34.2.67.41,1.01.62.16.09.32.19.47.29.36.22.71.46,1.06.69.34.22.67.45,1.01.67,3.9,2.67,7.5,5.75,10.75,9.16.38.38.75.78,1.11,1.18.3.32.59.66.88.99.47.54.94,1.09,1.39,1.65.28.32.55.66.81,1,.36.46.72.91,1.06,1.37.32.43.65.87.96,1.31.32.44.63.89.93,1.34.61.9,1.19,1.8,1.75,2.74.29.47.57.93.83,1.41.27.47.54.95.8,1.42.56,1.03,1.1,2.08,1.6,3.14.21.42.4.84.59,1.26.19.42.37.84.56,1.26.17.37.32.75.47,1.13.14.35.28.7.42,1.05.34.88.67,1.78.97,2.69.18.52.36,1.05.52,1.58,0,.02.02.04.02.07.16.51.31,1.01.45,1.52.42,1.46.78,2.94,1.1,4.42.08.37.16.76.23,1.14.04.22.08.43.12.65.05.29.11.58.15.87.07.42.14.83.2,1.25.07.42.13.84.18,1.26.03.19.05.37.07.57.03.31.07.62.11.94.03.3.07.6.08.9.05.46.09.91.12,1.37.04.54.07,1.08.1,1.63.03.57.06,1.16.07,1.73.02.58.02,1.16.02,1.74,0,37.24-30.3,67.54-67.54,67.54-.58,0-1.16,0-1.74-.02-.58,0-1.16-.03-1.73-.07-.57-.02-1.13-.06-1.7-.11h-.07c-.53-.04-1.06-.09-1.58-.14-.46-.05-.91-.1-1.36-.15-.28-.03-.56-.07-.84-.11-.4-.05-.8-.11-1.19-.17-.03,0-.07,0-.11-.02-.4-.06-.8-.12-1.19-.19-.34-.06-.67-.12-1.01-.18-.49-.09-.98-.18-1.46-.29-2.64-.56-5.22-1.26-7.74-2.13-.5-.17-.99-.34-1.48-.52-.48-.18-.96-.35-1.44-.54-.65-.26-1.29-.52-1.93-.8-.4-.17-.81-.34-1.21-.53-.43-.19-.87-.4-1.31-.61-.55-.27-1.1-.53-1.65-.82-.45-.23-.9-.47-1.35-.71-.51-.28-1.02-.57-1.52-.86-.47-.27-.94-.54-1.41-.83,0,0-.02,0-.03-.02-.86-.52-1.7-1.06-2.52-1.61-.07-.04-.13-.09-.19-.13-.45-.3-.89-.61-1.33-.92-.44-.31-.88-.62-1.31-.96-.43-.32-.86-.65-1.29-.99-.35-.27-.69-.54-1.03-.83-.55-.44-1.09-.9-1.62-1.36-.36-.31-.71-.62-1.06-.94,0,0,0,0,0,0-.4-.36-.8-.72-1.18-1.11-.39-.37-.78-.74-1.16-1.13-.75-.74-1.48-1.51-2.19-2.29-.37-.42-.76-.84-1.12-1.27-.71-.81-1.39-1.63-2.05-2.47-.4-.52-.8-1.03-1.19-1.56-.23-.31-.46-.62-.67-.93-.07-.1-.15-.2-.22-.31-.27-.38-.55-.77-.81-1.17-.27-.38-.52-.76-.76-1.16-.36-.55-.71-1.1-1.05-1.66-.55-.9-1.07-1.81-1.57-2.74-.98-1.79-1.87-3.63-2.69-5.52-.18-.43-.37-.87-.55-1.31,0-.02-.02-.04-.03-.07-.13-.33-.27-.66-.39-.99-.12-.3-.23-.61-.35-.91-.12-.32-.23-.64-.34-.96-.17-.46-.32-.91-.47-1.38-.15-.47-.3-.93-.44-1.41-.02-.04-.03-.09-.04-.14-.14-.45-.27-.91-.4-1.37-.14-.49-.27-.98-.4-1.48-.37-1.49-.71-2.99-.98-4.52-.09-.51-.17-1.01-.26-1.53-.08-.51-.16-1.02-.22-1.54-5.29-1.84-10.24-4.41-14.73-7.58.76,44.45,37.03,80.23,81.66,80.23s81.68-36.57,81.68-81.68S152.64,25.72,108.09,25.08ZM39.64,100.34c.05-.5.1-1,.16-1.5.06-.5.12-1,.19-1.49.07-.5.14-.99.22-1.48.07-.49.17-.98.25-1.46.37-1.95.81-3.88,1.34-5.76.12-.47.27-.94.41-1.41h0c.11-.37.22-.73.34-1.1.04-.16.09-.32.15-.47.13-.41.27-.82.42-1.22.12-.36.24-.72.38-1.06.08-.22.17-.44.25-.67.3-.79.62-1.56.94-2.34.38-.91.78-1.8,1.21-2.69.2-.42.41-.84.62-1.26.12-.27.27-.53.41-.79.16-.32.32-.63.49-.94.06-.11.12-.22.18-.32.22-.42.46-.83.7-1.25.22-.37.43-.75.65-1.11.2-.32.39-.64.59-.96.18-.29.37-.58.56-.87.77-1.21,1.59-2.39,2.44-3.53.28-.39.57-.77.86-1.15.22-.29.45-.58.68-.86.67-.85,1.37-1.69,2.1-2.5.29-.34.6-.67.9-1.01.64-.71,1.3-1.4,1.98-2.07.27-.27.55-.55.83-.82.43-.42.86-.84,1.31-1.24.32-.3.65-.59.98-.88.59-.53,1.2-1.04,1.8-1.55.31-.25.62-.51.94-.76,1.36-1.08,2.76-2.11,4.21-3.09.41-.28.82-.56,1.25-.82.33-.22.67-.42,1-.63.25-.16.51-.32.76-.47.37-.23.75-.46,1.13-.67.47-.28.95-.54,1.42-.8.48-.27.96-.52,1.45-.77.48-.25.97-.5,1.46-.73.03-.02.06-.02.08-.04.86-.42,1.75-.81,2.64-1.2.67-.28,1.33-.56,2-.82.44-.18.89-.35,1.34-.51.39-.15.79-.29,1.19-.42.2-.07.41-.14.62-.22.44-.14.88-.29,1.33-.42.52-.17,1.06-.32,1.59-.47.53-.16,1.06-.3,1.6-.44.47-.12.95-.24,1.43-.35.36-.08.72-.17,1.08-.24.16-.04.32-.08.48-.11.27-.05.55-.11.82-.17.48-.09.96-.18,1.45-.27.35-.06.69-.12,1.04-.17.37-.07.73-.12,1.1-.17.95-.13,1.9-.25,2.86-.34-2.38-4.84-5.61-9.2-9.48-12.88-32.28,6.45-57.7,31.93-64.05,64.25,3.69,3.86,8.06,7.08,12.91,9.45Z"/>
      <path class="cls-2" d="M118.06,48.58c-3.63-.7-7.36-1.06-11.19-1.06-1.19,0-2.37.03-3.53.11,1.04,3.8,1.59,7.79,1.59,11.91,0,25.03-20.37,45.4-45.4,45.4-4.08,0-8.02-.54-11.78-1.56h0c-.06,1.11-.09,2.23-.09,3.36,0,3.88.37,7.68,1.1,11.36,3.49.64,7.09.97,10.78.97,32.88,0,59.54-26.65,59.54-59.54,0-3.74-.35-7.4-1.01-10.95ZM59.53,0C26.65,0,0,26.65,0,59.54c0,16.24,6.5,30.96,17.05,41.7.38-6.49,1.46-12.85,3.19-18.99-3.88-6.69-6.1-14.44-6.1-22.71,0-25.03,20.36-45.4,45.39-45.4,8.22,0,15.95,2.2,22.61,6.04,6.14-1.75,12.48-2.84,18.97-3.24C90.39,6.45,75.71,0,59.53,0Z"/>
    </g>
  </g>
</svg>