<?xml version="1.0" encoding="UTF-8"?>
<svg id="Camada_2" data-name="Camada 2" xmlns="http://www.w3.org/2000/svg" viewBox="0 0 544.8 166">
  <defs>
    <style>
      .cls-1 {
        fill: #22b573;
      }
    </style>
  </defs>
  <g id="Camada_1-2" data-name="Camada 1">
    <g>
      <g>
        <path class="cls-1" d="M88.88,20.63c2.62,3.68,4.74,7.74,6.26,12.08,1.9.25,3.77.6,5.61,1.03.31.08.62.15.92.23.08.02.15.04.23.06.39.1.78.21,1.17.32,0,0,.01,0,.02,0,.38.1.75.21,1.12.33.32.1.64.2.96.31.33.11.66.22.98.34.31.1.61.21.92.33.3.11.6.23.9.34,1.77.68,3.49,1.46,5.17,2.33.4.21.8.41,1.19.63.67.36,1.33.74,1.98,1.13.28.16.55.34.83.51.13.08.26.16.39.24.29.18.58.38.87.57.28.18.55.37.83.55,3.21,2.2,6.17,4.73,8.84,7.53.31.31.62.64.91.97.25.27.49.54.72.81.39.44.77.9,1.14,1.35.23.27.45.54.66.82.29.38.59.75.87,1.13.27.36.53.72.79,1.08.27.36.52.73.77,1.1.5.74.98,1.48,1.44,2.25.24.38.47.77.68,1.16.23.39.44.78.66,1.17.46.85.9,1.71,1.31,2.58.17.34.33.69.49,1.04.16.34.31.69.46,1.04.14.31.27.62.39.93.12.29.23.57.34.86.28.72.55,1.46.8,2.21.15.43.29.86.42,1.3,0,.01.01.03.02.05.13.42.25.83.37,1.25.34,1.2.64,2.41.9,3.64.07.31.13.62.19.94.03.18.07.36.1.53.04.24.09.48.12.72.06.34.12.68.16,1.03.05.34.11.69.15,1.04.02.16.04.31.06.46.03.25.06.51.09.77.03.25.05.49.07.74.04.38.08.75.1,1.13.03.44.06.89.08,1.34.03.47.05.95.05,1.42.01.48.02.95.02,1.43,0,30.62-24.92,55.54-55.54,55.54-.48,0-.96,0-1.43-.02-.48,0-.95-.03-1.42-.05-.47-.02-.93-.05-1.4-.09h-.06c-.44-.03-.87-.08-1.3-.12-.38-.04-.75-.08-1.11-.12-.23-.03-.46-.06-.69-.09-.33-.04-.66-.09-.98-.14-.03,0-.06,0-.09-.01-.33-.05-.66-.1-.98-.16-.28-.05-.55-.1-.83-.15-.4-.08-.81-.15-1.2-.24-2.17-.46-4.29-1.04-6.37-1.75-.41-.14-.81-.28-1.22-.43-.4-.14-.79-.29-1.18-.44-.53-.21-1.06-.43-1.59-.66-.33-.14-.66-.28-.99-.44-.36-.16-.72-.33-1.07-.5-.45-.22-.9-.44-1.35-.67-.37-.19-.74-.38-1.11-.58-.42-.23-.84-.46-1.25-.7-.39-.22-.77-.44-1.16-.68,0,0-.02,0-.03-.01-.7-.42-1.4-.87-2.07-1.33-.05-.03-.11-.08-.16-.11-.37-.25-.73-.5-1.09-.76-.36-.25-.72-.51-1.08-.79-.36-.26-.71-.53-1.06-.81-.29-.22-.57-.44-.85-.68-.45-.36-.9-.74-1.33-1.12-.29-.25-.58-.51-.87-.77,0,0,0,0,0,0-.33-.29-.66-.6-.97-.91-.32-.3-.64-.61-.96-.93-.62-.61-1.22-1.24-1.8-1.88-.31-.34-.62-.69-.92-1.05-.58-.66-1.14-1.34-1.68-2.03-.33-.42-.66-.85-.98-1.29-.19-.25-.38-.51-.55-.77-.06-.08-.12-.16-.18-.25-.23-.31-.45-.64-.66-.96-.22-.31-.42-.63-.63-.95-.29-.45-.58-.9-.86-1.37-.45-.74-.88-1.49-1.29-2.26-.81-1.47-1.54-2.99-2.21-4.54-.15-.36-.31-.72-.45-1.08,0-.01-.01-.03-.02-.05-.11-.27-.22-.54-.32-.81-.1-.25-.19-.5-.29-.75-.1-.26-.19-.53-.28-.79-.14-.38-.27-.75-.39-1.14-.12-.38-.25-.77-.36-1.16-.02-.03-.03-.08-.03-.12-.12-.37-.23-.75-.33-1.13-.12-.4-.23-.81-.33-1.22-.31-1.22-.58-2.46-.81-3.71-.08-.42-.14-.83-.21-1.26-.07-.42-.13-.84-.18-1.27-4.35-1.51-8.42-3.62-12.11-6.24.63,36.55,30.45,65.98,67.15,65.98s67.17-30.07,67.17-67.17S125.52,21.15,88.88,20.63ZM32.6,82.52c.04-.41.08-.82.13-1.23.05-.41.1-.82.16-1.22.05-.41.12-.81.18-1.22.06-.4.14-.81.21-1.2.3-1.61.66-3.19,1.1-4.74.1-.38.22-.77.34-1.16h0c.09-.3.18-.6.28-.9.03-.13.08-.26.12-.38.11-.34.23-.67.34-1.01.1-.29.2-.59.31-.88.07-.18.14-.36.21-.55.25-.65.51-1.29.77-1.92.31-.75.64-1.48,1-2.21.16-.35.34-.69.51-1.03.1-.22.22-.44.34-.65.13-.26.27-.52.4-.77.05-.09.1-.18.15-.27.18-.35.38-.68.57-1.03.18-.31.36-.62.53-.92.16-.27.32-.53.49-.79.15-.24.3-.48.46-.72.64-.99,1.31-1.96,2.01-2.91.23-.32.47-.63.71-.94.18-.24.37-.48.56-.71.55-.7,1.13-1.39,1.73-2.06.24-.28.49-.55.74-.83.53-.58,1.07-1.15,1.63-1.7.23-.23.45-.45.68-.67.36-.35.71-.69,1.07-1.02.27-.25.53-.49.81-.72.49-.44.98-.85,1.48-1.27.25-.21.51-.42.77-.62,1.12-.89,2.27-1.74,3.46-2.54.34-.23.68-.46,1.03-.68.27-.18.55-.35.82-.52.21-.13.42-.26.63-.38.31-.19.62-.38.93-.55.39-.23.78-.44,1.17-.66.4-.22.79-.43,1.19-.63.4-.2.8-.41,1.2-.6.03-.01.05-.02.07-.03.71-.34,1.44-.67,2.17-.98.55-.23,1.09-.46,1.65-.67.36-.15.73-.29,1.1-.42.32-.12.65-.24.98-.35.16-.06.34-.12.51-.18.36-.12.72-.24,1.09-.35.43-.14.87-.27,1.31-.39.44-.13.88-.25,1.32-.36.39-.1.78-.2,1.18-.29.29-.07.6-.14.89-.2.13-.03.27-.06.4-.09.23-.04.45-.09.68-.14.4-.08.79-.15,1.19-.22.29-.05.57-.1.85-.14.3-.05.6-.1.9-.14.78-.11,1.57-.21,2.35-.28-1.96-3.98-4.61-7.56-7.8-10.59-26.55,5.31-47.45,26.26-52.67,52.84,3.04,3.17,6.63,5.82,10.61,7.77Z"/>
        <path class="cls-1" d="M97.08,39.95c-2.98-.57-6.05-.88-9.2-.88-.98,0-1.95.03-2.91.09.85,3.13,1.31,6.41,1.31,9.79,0,20.58-16.75,37.33-37.33,37.33-3.35,0-6.59-.44-9.68-1.28h0c-.05.92-.08,1.83-.08,2.76,0,3.19.31,6.32.9,9.34,2.87.53,5.83.8,8.86.8,27.04,0,48.96-21.92,48.96-48.96,0-3.08-.29-6.09-.83-9.01ZM48.95,0C21.92,0,0,21.92,0,48.96c0,13.36,5.35,25.46,14.02,34.29.31-5.33,1.2-10.57,2.62-15.61-3.19-5.5-5.01-11.88-5.01-18.68,0-20.58,16.74-37.33,37.33-37.33,6.76,0,13.12,1.81,18.59,4.97,5.05-1.44,10.27-2.33,15.6-2.67C74.33,5.31,62.26,0,48.95,0Z"/>
      </g>
      <g>
        <path class="cls-1" d="M205.45,109.05c-21.19,0-29.27-9.14-29.27-22.52v-48.21c0-13.38,8.08-22.52,29.27-22.52h75.1v13.78h-75.1c-7.95,0-11.66,3.05-11.66,8.61v48.48c0,5.56,3.71,8.61,11.66,8.61h75.1v13.78h-75.1Z"/>
        <path class="cls-1" d="M296.58,109.05v-13.78h81.06c7.95,0,11.66-3.05,11.66-8.61v-11.79c0-5.56-3.71-8.61-11.66-8.61h-54.84c-21.19,0-29.27-9.14-29.27-22.52v-5.43c0-13.38,8.08-22.52,29.27-22.52h78.94v13.78h-78.94c-7.95,0-11.66,3.05-11.66,8.61v5.7c0,5.56,3.71,8.61,11.66,8.61h54.84c21.19,0,29.27,9.14,29.27,22.52v11.52c0,13.38-8.08,22.52-29.27,22.52h-81.06Z"/>
        <path class="cls-1" d="M536.19,109.05l-99.47-72.58v72.58h-15.36V15.8h15.23l92.85,69.27V15.8h15.36v93.25h-8.61Z"/>
      </g>
      <g>
        <path class="cls-1" d="M204.62,144.23h-2.85c-.21-1.06-.59-2.04-1.14-2.95-.55-.9-1.24-1.7-2.07-2.37-.83-.68-1.77-1.2-2.82-1.58-1.05-.37-2.19-.56-3.41-.56-1.96,0-3.75.51-5.36,1.53-1.61,1.02-2.9,2.52-3.87,4.5s-1.45,4.39-1.45,7.25.48,5.31,1.45,7.28c.97,1.97,2.25,3.47,3.87,4.48s3.4,1.52,5.36,1.52c1.22,0,2.36-.19,3.41-.56,1.05-.37,1.99-.9,2.82-1.57.83-.67,1.52-1.46,2.07-2.37s.93-1.9,1.14-2.96h2.85c-.25,1.43-.73,2.75-1.42,3.98-.69,1.23-1.57,2.3-2.64,3.22s-2.29,1.64-3.68,2.15-2.91.77-4.56.77c-2.61,0-4.92-.65-6.94-1.96s-3.61-3.16-4.75-5.54c-1.15-2.39-1.72-5.2-1.72-8.45s.57-6.06,1.72-8.44c1.15-2.39,2.73-4.23,4.75-5.54s4.34-1.96,6.94-1.96c1.66,0,3.18.26,4.56.77s2.61,1.23,3.68,2.15,1.95,2,2.64,3.22c.69,1.22,1.16,2.55,1.42,3.99Z"/>
        <path class="cls-1" d="M262.36,150.05c0,3.23-.58,6.05-1.73,8.44s-2.74,4.24-4.75,5.55c-2.02,1.31-4.33,1.96-6.95,1.96s-4.93-.65-6.95-1.96c-2.02-1.31-3.6-3.16-4.75-5.55s-1.72-5.2-1.72-8.44.57-6.05,1.72-8.44,2.73-4.24,4.75-5.55,4.34-1.96,6.94-1.96,4.94.65,6.95,1.96c2.02,1.31,3.6,3.16,4.75,5.55s1.73,5.2,1.73,8.44ZM259.6,150.05c0-2.78-.46-5.16-1.39-7.15s-2.2-3.5-3.81-4.56c-1.61-1.05-3.43-1.58-5.47-1.58s-3.85.53-5.46,1.58c-1.61,1.05-2.88,2.57-3.81,4.55s-1.4,4.37-1.4,7.16.46,5.16,1.39,7.14,2.2,3.5,3.81,4.56c1.61,1.06,3.43,1.58,5.47,1.58s3.87-.53,5.48-1.58c1.61-1.05,2.88-2.57,3.81-4.56.93-1.99,1.39-4.37,1.38-7.15Z"/>
        <path class="cls-1" d="M294.83,134.52h3.28l11.27,27.05h.27l11.27-27.05h3.27v31.05h-2.67v-25.06h-.24l-10.48,25.06h-2.58l-10.48-25.06h-.24v25.06h-2.67v-31.05Z"/>
        <path class="cls-1" d="M358.05,165.57v-31.05h10.02c2.2,0,4.05.42,5.53,1.27,1.48.84,2.6,1.99,3.35,3.43s1.13,3.07,1.13,4.88-.37,3.44-1.12,4.89c-.75,1.45-1.86,2.6-3.34,3.44-1.48.84-3.31,1.27-5.5,1.27h-7.88v-2.55h7.81c1.63,0,2.98-.31,4.05-.92,1.07-.61,1.87-1.45,2.4-2.51s.8-2.27.8-3.62-.27-2.56-.8-3.62-1.33-1.9-2.41-2.5c-1.08-.61-2.44-.91-4.09-.91h-7.11v28.5h-2.84Z"/>
        <path class="cls-1" d="M410.42,165.57h-2.97l11.3-31.05h3.03l11.29,31.05h-2.97l-9.73-27.37h-.21l-9.73,27.37ZM412.55,153.67h15.4v2.55h-15.4v-2.55Z"/>
        <path class="cls-1" d="M488.19,134.52v31.05h-2.76l-18.35-26h-.24v26h-2.84v-31.05h2.74l18.41,26.03h.24v-26.03h2.79Z"/>
        <path class="cls-1" d="M519.14,134.52h3.28l9.2,14.74h.27l9.2-14.74h3.28l-11.21,17.6v13.45h-2.82v-13.45l-11.21-17.6Z"/>
      </g>
    </g>
  </g>
</svg>